<svg width="42" height="69" viewBox="0 0 42 69" fill="none" xmlns="http://www.w3.org/2000/svg">
<path fill-rule="evenodd" clip-rule="evenodd" d="M6.91734 18.4151C6.73672 18.7586 6.63533 19.1525 6.63533 19.5653C6.63533 20.6965 7.37678 21.6324 8.28621 21.6324C9.19244 21.6324 9.9371 20.7123 9.9371 19.5653C9.9371 19.1557 9.83887 18.7618 9.65509 18.4151C9.37308 17.8889 9.75331 17.2492 10.349 17.2492H16.5531V10.6665C16.5531 10.0741 17.1964 9.69917 17.7255 9.97645C18.0709 10.1561 18.467 10.2569 18.8821 10.2569C20.0386 10.2569 20.9607 9.51955 20.9607 8.61514C20.9607 7.71391 20.0196 6.97338 18.8821 6.97338C18.4702 6.97338 18.0741 7.07106 17.7255 7.25383C17.1964 7.53428 16.5531 7.15615 16.5531 6.56374V0C13.4669 0.148099 10.4947 1.09975 7.88988 2.77297C7.24665 3.19837 6.61927 3.65847 6.02355 4.16894C2.21172 7.43665 0 12.2769 0 17.2646H6.22318C6.81571 17.2489 7.19616 17.892 6.91734 18.4151Z" fill="#2F4F4F"/>
<path fill-rule="evenodd" clip-rule="evenodd" d="M20.2188 51.5207V40.1448C19.9717 40.1952 19.7245 40.211 19.4774 40.211C17.4653 40.211 15.8145 38.7678 15.8145 36.9937C15.8145 35.2196 17.4654 33.7764 19.4774 33.7764C19.7245 33.7764 19.9717 33.7922 20.2188 33.8426V26.7684H14.0147C13.419 26.7684 13.042 27.408 13.3208 27.9343C13.5014 28.2777 13.6028 28.6716 13.6028 29.0844C13.6028 30.2346 12.8613 31.1516 11.9519 31.1516C11.0457 31.1516 10.301 30.2156 10.301 29.0844C10.301 28.6748 10.3993 28.2809 10.583 27.9343C10.8651 27.408 10.4848 26.7684 9.88912 26.7684H3.73253C4.21099 33.039 6.63813 36.1243 9.19524 39.3889C11.6034 42.4581 14.1129 45.6407 14.772 51.5021L20.2188 51.5052L20.2188 51.5207Z" fill="#2F4F4F"/>
<path fill-rule="evenodd" clip-rule="evenodd" d="M31.4235 25.6373C31.6041 25.2939 31.7055 24.9 31.7055 24.4872C31.7055 23.356 30.964 22.42 30.0546 22.42C29.1484 22.42 28.4037 23.356 28.4037 24.4872C28.4037 24.8968 28.5019 25.2907 28.6857 25.6373C28.9677 26.1636 28.5875 26.8032 27.9918 26.8032H21.8035V34.9774C21.8035 35.5698 21.1603 35.9447 20.6311 35.6675C20.2857 35.4878 19.8897 35.387 19.4746 35.387C18.3371 35.387 17.3959 36.1244 17.3959 37.0288C17.3959 37.93 18.3371 38.6705 19.4746 38.6705C19.8865 38.6705 20.2826 38.5728 20.6311 38.3901C21.1603 38.1096 21.8035 38.4878 21.8035 39.0802V51.5362H27.2155C27.8746 46.0059 30.3683 42.6247 32.7923 39.3569C35.3684 35.8938 37.7924 32.6103 38.255 26.8H32.1142C31.5217 26.8032 31.1446 26.1636 31.4235 25.6373Z" fill="#2F4F4F"/>
<path fill-rule="evenodd" clip-rule="evenodd" d="M14.7881 57.4295H27.2151C28.4192 57.4295 29.3952 56.4621 29.3952 55.2458C29.3952 54.0484 28.4033 53.0967 27.2341 53.0967H14.7722C13.5998 53.0967 12.6112 54.0484 12.6112 55.2647C12.627 56.4621 13.5999 57.4295 14.7881 57.4295Z" fill="#2F4F4F"/>
<path fill-rule="evenodd" clip-rule="evenodd" d="M27.1997 59.0051H14.7881C13.584 59.0208 12.6081 59.9567 12.6081 61.173C12.6081 62.3705 13.5808 63.341 14.7691 63.341H27.2124C28.4006 63.341 29.3734 62.3736 29.3734 61.1919C29.3956 59.9724 28.4196 59.0051 27.1997 59.0051Z" fill="#2F4F4F"/>
<path fill-rule="evenodd" clip-rule="evenodd" d="M14.9527 66.5863C14.9527 67.916 16.0428 69 17.3799 69H24.6424C25.9795 69 27.0695 67.916 27.0695 66.5863V64.8972H14.9718L14.9686 66.5863H14.9527Z" fill="#2F4F4F"/>
<path fill-rule="evenodd" clip-rule="evenodd" d="M26.6384 7.25389C26.9838 7.07428 27.3798 6.97344 27.795 6.97344C28.9324 6.97344 29.8736 7.7108 29.8736 8.6152C29.8736 9.51643 28.9483 10.257 27.795 10.257C27.383 10.257 26.987 10.1593 26.6384 9.97651C26.1092 9.69606 25.4818 10.0742 25.466 10.6666V17.265H31.7874C32.3641 17.2335 32.7126 16.6096 32.4307 16.0991C32.25 15.7557 32.1486 15.3618 32.1486 14.949C32.1486 13.7988 32.8901 12.8818 33.7995 12.8818C34.7058 12.8818 35.4504 13.8178 35.4504 14.949C35.4504 15.3586 35.3522 15.7525 35.1684 16.0991C34.8864 16.6065 35.2349 17.2146 35.8116 17.265H41.9999C42.0158 11.4544 39.0468 5.95534 34.1291 2.77297C31.5372 1.09975 28.5524 0.129231 25.4659 0V6.58269C25.4659 7.17195 26.1092 7.53435 26.6384 7.25389Z" fill="#2F4F4F"/>
</svg>
