<svg width="53" height="53" viewBox="0 0 53 53" fill="none" xmlns="http://www.w3.org/2000/svg">
<path fill-rule="evenodd" clip-rule="evenodd" d="M31.3567 0.662476C26.5936 0.662476 22.7235 4.47134 22.7235 9.17693V10.3435H11.2776C11.0414 10.3435 10.8149 10.437 10.6479 10.6035C10.4809 10.7699 10.387 10.9956 10.387 11.231V22.6368H9.21631C4.49412 22.6368 0.671875 26.4933 0.671875 31.2396C0.671875 35.9861 4.49412 39.8425 9.21631 39.8425H10.387V51.25C10.387 51.4853 10.4808 51.7111 10.6479 51.8775C10.8149 52.044 11.0414 52.1375 11.2776 52.1375H23.6142C23.8504 52.1375 24.0769 52.044 24.2439 51.8775C24.4109 51.7111 24.5048 51.4853 24.5048 51.25V49.1976C24.5048 45.4558 27.5388 42.4582 31.3567 42.4582C35.1156 42.4582 38.1169 45.3602 38.2103 49.0174C38.2103 49.0218 38.2103 49.0263 38.2103 49.0308C38.2111 49.0475 38.2103 49.1069 38.2103 49.1972V51.2495C38.2103 51.4849 38.3042 51.7106 38.4712 51.877C38.6382 52.0435 38.8647 52.137 39.101 52.137H51.4375C51.6737 52.137 51.9002 52.0435 52.0673 51.877C52.2343 51.7106 52.3281 51.4849 52.3281 51.2495V38.9562C52.328 38.721 52.2341 38.4954 52.0671 38.329C51.9001 38.1627 51.6736 38.0692 51.4375 38.0692H49.3779C45.6229 38.0692 42.6147 35.0459 42.6147 31.2413C42.6147 27.4957 45.527 24.5067 49.197 24.4135C49.2016 24.413 49.2062 24.4124 49.2108 24.4118C49.2277 24.4111 49.2876 24.4135 49.3778 24.4135H51.4375C51.6737 24.4135 51.9002 24.32 52.0672 24.1535C52.2343 23.9871 52.3281 23.7614 52.3281 23.526V11.231C52.3281 10.9956 52.2343 10.7699 52.0672 10.6035C51.9002 10.437 51.6737 10.3435 51.4375 10.3435H39.9916V9.17867C39.9916 4.47331 36.1195 0.662838 31.3567 0.662476Z" fill="white"/>
</svg>
